<?xml version="1.0" encoding="UTF-8" standalone="no"?>
<!DOCTYPE svg PUBLIC "-//W3C//DTD SVG 1.1//EN"
 "http://www.w3.org/Graphics/SVG/1.1/DTD/svg11.dtd">
<!-- Generated by graphviz version 2.43.0 (0)
 -->
<!-- Title: snakemake_dag Pages: 1 -->
<svg width="1105pt" height="1100pt"
 viewBox="0.00 0.00 1105.00 1100.00" xmlns="http://www.w3.org/2000/svg" xmlns:xlink="http://www.w3.org/1999/xlink">
<g id="graph0" class="graph" transform="scale(1 1) rotate(0) translate(4 1096)">
<title>snakemake_dag</title>
<polygon fill="white" stroke="transparent" points="-4,4 -4,-1096 1101,-1096 1101,4 -4,4"/>
<!-- 0 -->
<g id="node1" class="node">
<title>0</title>
<path fill="none" stroke="#ced856" stroke-width="2" d="M536,-36C536,-36 506,-36 506,-36 500,-36 494,-30 494,-24 494,-24 494,-12 494,-12 494,-6 500,0 506,0 506,0 536,0 536,0 542,0 548,-6 548,-12 548,-12 548,-24 548,-24 548,-30 542,-36 536,-36"/>
<text text-anchor="middle" x="521" y="-15.5" font-family="sans" font-size="10.00">all</text>
</g>
<!-- 1 -->
<g id="node2" class="node">
<title>1</title>
<path fill="none" stroke="#5673d8" stroke-width="2" d="M495,-108C495,-108 397,-108 397,-108 391,-108 385,-102 385,-96 385,-96 385,-84 385,-84 385,-78 391,-72 397,-72 397,-72 495,-72 495,-72 501,-72 507,-78 507,-84 507,-84 507,-96 507,-96 507,-102 501,-108 495,-108"/>
<text text-anchor="middle" x="446" y="-87.5" font-family="sans" font-size="10.00">merge_rnaseq_count</text>
</g>
<!-- 1&#45;&gt;0 -->
<g id="edge1" class="edge">
<title>1&#45;&gt;0</title>
<path fill="none" stroke="grey" stroke-width="2" d="M464.54,-71.7C473.8,-63.05 485.16,-52.45 495.26,-43.03"/>
<polygon fill="grey" stroke="grey" stroke-width="2" points="497.75,-45.49 502.67,-36.1 492.98,-40.37 497.75,-45.49"/>
</g>
<!-- 2 -->
<g id="node3" class="node">
<title>2</title>
<path fill="none" stroke="#56d882" stroke-width="2" d="M273.5,-185C273.5,-185 164.5,-185 164.5,-185 158.5,-185 152.5,-179 152.5,-173 152.5,-173 152.5,-156 152.5,-156 152.5,-150 158.5,-144 164.5,-144 164.5,-144 273.5,-144 273.5,-144 279.5,-144 285.5,-150 285.5,-156 285.5,-156 285.5,-173 285.5,-173 285.5,-179 279.5,-185 273.5,-185"/>
<text text-anchor="middle" x="219" y="-173" font-family="sans" font-size="10.00">RNAseq_SNPcountRead</text>
<text text-anchor="middle" x="219" y="-162" font-family="sans" font-size="10.00">chr: chr1</text>
<text text-anchor="middle" x="219" y="-151" font-family="sans" font-size="10.00">gene_or_exon: exon</text>
</g>
<!-- 2&#45;&gt;1 -->
<g id="edge3" class="edge">
<title>2&#45;&gt;1</title>
<path fill="none" stroke="grey" stroke-width="2" d="M280.13,-143.98C311.9,-133.83 350.69,-121.44 382.77,-111.2"/>
<polygon fill="grey" stroke="grey" stroke-width="2" points="384.03,-114.47 392.49,-108.09 381.9,-107.8 384.03,-114.47"/>
</g>
<!-- 3 -->
<g id="node4" class="node">
<title>3</title>
<path fill="none" stroke="#56a9d8" stroke-width="2" d="M660,-257C660,-257 532,-257 532,-257 526,-257 520,-251 520,-245 520,-245 520,-233 520,-233 520,-227 526,-221 532,-221 532,-221 660,-221 660,-221 666,-221 672,-227 672,-233 672,-233 672,-245 672,-245 672,-251 666,-257 660,-257"/>
<text text-anchor="middle" x="596" y="-236.5" font-family="sans" font-size="10.00">breakpoint_to_phasedHaps</text>
</g>
<!-- 3&#45;&gt;2 -->
<g id="edge6" class="edge">
<title>3&#45;&gt;2</title>
<path fill="none" stroke="grey" stroke-width="2" d="M519.92,-226.26C461.26,-216.83 377.93,-202.6 295.68,-185.07"/>
<polygon fill="grey" stroke="grey" stroke-width="2" points="296.17,-181.59 285.66,-182.91 294.7,-188.44 296.17,-181.59"/>
</g>
<!-- 35 -->
<g id="node36" class="node">
<title>35</title>
<path fill="none" stroke="#56d882" stroke-width="2" d="M424.5,-185C424.5,-185 315.5,-185 315.5,-185 309.5,-185 303.5,-179 303.5,-173 303.5,-173 303.5,-156 303.5,-156 303.5,-150 309.5,-144 315.5,-144 315.5,-144 424.5,-144 424.5,-144 430.5,-144 436.5,-150 436.5,-156 436.5,-156 436.5,-173 436.5,-173 436.5,-179 430.5,-185 424.5,-185"/>
<text text-anchor="middle" x="370" y="-173" font-family="sans" font-size="10.00">RNAseq_SNPcountRead</text>
<text text-anchor="middle" x="370" y="-162" font-family="sans" font-size="10.00">chr: chr2</text>
<text text-anchor="middle" x="370" y="-151" font-family="sans" font-size="10.00">gene_or_exon: exon</text>
</g>
<!-- 3&#45;&gt;35 -->
<g id="edge53" class="edge">
<title>3&#45;&gt;35</title>
<path fill="none" stroke="grey" stroke-width="2" d="M542.73,-220.91C512.2,-211.12 473.52,-198.71 440.5,-188.12"/>
<polygon fill="grey" stroke="grey" stroke-width="2" points="441.49,-184.76 430.9,-185.04 439.35,-191.42 441.49,-184.76"/>
</g>
<!-- 36 -->
<g id="node37" class="node">
<title>36</title>
<path fill="none" stroke="#56d882" stroke-width="2" d="M575.5,-185C575.5,-185 466.5,-185 466.5,-185 460.5,-185 454.5,-179 454.5,-173 454.5,-173 454.5,-156 454.5,-156 454.5,-150 460.5,-144 466.5,-144 466.5,-144 575.5,-144 575.5,-144 581.5,-144 587.5,-150 587.5,-156 587.5,-156 587.5,-173 587.5,-173 587.5,-179 581.5,-185 575.5,-185"/>
<text text-anchor="middle" x="521" y="-173" font-family="sans" font-size="10.00">RNAseq_SNPcountRead</text>
<text text-anchor="middle" x="521" y="-162" font-family="sans" font-size="10.00">chr: chrX</text>
<text text-anchor="middle" x="521" y="-151" font-family="sans" font-size="10.00">gene_or_exon: exon</text>
</g>
<!-- 3&#45;&gt;36 -->
<g id="edge54" class="edge">
<title>3&#45;&gt;36</title>
<path fill="none" stroke="grey" stroke-width="2" d="M578.23,-220.82C569.39,-212.28 558.51,-201.76 548.62,-192.2"/>
<polygon fill="grey" stroke="grey" stroke-width="2" points="550.92,-189.55 541.3,-185.12 546.05,-194.59 550.92,-189.55"/>
</g>
<!-- 38 -->
<g id="node39" class="node">
<title>38</title>
<path fill="none" stroke="#56d882" stroke-width="2" d="M726.5,-185C726.5,-185 617.5,-185 617.5,-185 611.5,-185 605.5,-179 605.5,-173 605.5,-173 605.5,-156 605.5,-156 605.5,-150 611.5,-144 617.5,-144 617.5,-144 726.5,-144 726.5,-144 732.5,-144 738.5,-150 738.5,-156 738.5,-156 738.5,-173 738.5,-173 738.5,-179 732.5,-185 726.5,-185"/>
<text text-anchor="middle" x="672" y="-173" font-family="sans" font-size="10.00">RNAseq_SNPcountRead</text>
<text text-anchor="middle" x="672" y="-162" font-family="sans" font-size="10.00">chr: chr1</text>
<text text-anchor="middle" x="672" y="-151" font-family="sans" font-size="10.00">gene_or_exon: gene</text>
</g>
<!-- 3&#45;&gt;38 -->
<g id="edge58" class="edge">
<title>3&#45;&gt;38</title>
<path fill="none" stroke="grey" stroke-width="2" d="M614.01,-220.82C622.97,-212.28 633.99,-201.76 644.01,-192.2"/>
<polygon fill="grey" stroke="grey" stroke-width="2" points="646.61,-194.55 651.43,-185.12 641.78,-189.49 646.61,-194.55"/>
</g>
<!-- 39 -->
<g id="node40" class="node">
<title>39</title>
<path fill="none" stroke="#56d882" stroke-width="2" d="M877.5,-185C877.5,-185 768.5,-185 768.5,-185 762.5,-185 756.5,-179 756.5,-173 756.5,-173 756.5,-156 756.5,-156 756.5,-150 762.5,-144 768.5,-144 768.5,-144 877.5,-144 877.5,-144 883.5,-144 889.5,-150 889.5,-156 889.5,-156 889.5,-173 889.5,-173 889.5,-179 883.5,-185 877.5,-185"/>
<text text-anchor="middle" x="823" y="-173" font-family="sans" font-size="10.00">RNAseq_SNPcountRead</text>
<text text-anchor="middle" x="823" y="-162" font-family="sans" font-size="10.00">chr: chr2</text>
<text text-anchor="middle" x="823" y="-151" font-family="sans" font-size="10.00">gene_or_exon: gene</text>
</g>
<!-- 3&#45;&gt;39 -->
<g id="edge59" class="edge">
<title>3&#45;&gt;39</title>
<path fill="none" stroke="grey" stroke-width="2" d="M649.51,-220.91C680.17,-211.12 719.02,-198.71 752.19,-188.12"/>
<polygon fill="grey" stroke="grey" stroke-width="2" points="753.37,-191.41 761.83,-185.04 751.24,-184.74 753.37,-191.41"/>
</g>
<!-- 40 -->
<g id="node41" class="node">
<title>40</title>
<path fill="none" stroke="#56d882" stroke-width="2" d="M1028.5,-185C1028.5,-185 919.5,-185 919.5,-185 913.5,-185 907.5,-179 907.5,-173 907.5,-173 907.5,-156 907.5,-156 907.5,-150 913.5,-144 919.5,-144 919.5,-144 1028.5,-144 1028.5,-144 1034.5,-144 1040.5,-150 1040.5,-156 1040.5,-156 1040.5,-173 1040.5,-173 1040.5,-179 1034.5,-185 1028.5,-185"/>
<text text-anchor="middle" x="974" y="-173" font-family="sans" font-size="10.00">RNAseq_SNPcountRead</text>
<text text-anchor="middle" x="974" y="-162" font-family="sans" font-size="10.00">chr: chrX</text>
<text text-anchor="middle" x="974" y="-151" font-family="sans" font-size="10.00">gene_or_exon: gene</text>
</g>
<!-- 3&#45;&gt;40 -->
<g id="edge60" class="edge">
<title>3&#45;&gt;40</title>
<path fill="none" stroke="grey" stroke-width="2" d="M672.29,-226.41C731.36,-217.04 815.41,-202.82 897.42,-185.27"/>
<polygon fill="grey" stroke="grey" stroke-width="2" points="898.37,-188.64 907.41,-183.11 896.9,-181.8 898.37,-188.64"/>
</g>
<!-- 4 -->
<g id="node5" class="node">
<title>4</title>
<path fill="none" stroke="#61d856" stroke-width="2" d="M599,-329C599,-329 507,-329 507,-329 501,-329 495,-323 495,-317 495,-317 495,-305 495,-305 495,-299 501,-293 507,-293 507,-293 599,-293 599,-293 605,-293 611,-299 611,-305 611,-305 611,-317 611,-317 611,-323 605,-329 599,-329"/>
<text text-anchor="middle" x="553" y="-308.5" font-family="sans" font-size="10.00">break_vs_haplotags</text>
</g>
<!-- 4&#45;&gt;3 -->
<g id="edge7" class="edge">
<title>4&#45;&gt;3</title>
<path fill="none" stroke="grey" stroke-width="2" d="M563.63,-292.7C568.63,-284.56 574.69,-274.69 580.21,-265.7"/>
<polygon fill="grey" stroke="grey" stroke-width="2" points="583.24,-267.46 585.49,-257.1 577.28,-263.79 583.24,-267.46"/>
</g>
<!-- 5 -->
<g id="node6" class="node">
<title>5</title>
<path fill="none" stroke="#97d856" stroke-width="2" d="M645,-401C645,-401 547,-401 547,-401 541,-401 535,-395 535,-389 535,-389 535,-377 535,-377 535,-371 541,-365 547,-365 547,-365 645,-365 645,-365 651,-365 657,-371 657,-377 657,-377 657,-389 657,-389 657,-395 651,-401 645,-401"/>
<text text-anchor="middle" x="596" y="-380.5" font-family="sans" font-size="10.00">merge_bam_and_vcf</text>
</g>
<!-- 5&#45;&gt;3 -->
<g id="edge8" class="edge">
<title>5&#45;&gt;3</title>
<path fill="none" stroke="grey" stroke-width="2" d="M605.95,-364.98C611.27,-354.89 617.27,-341.64 620,-329 623.38,-313.36 623.38,-308.64 620,-293 618.04,-283.92 614.39,-274.52 610.51,-266.2"/>
<polygon fill="grey" stroke="grey" stroke-width="2" points="613.54,-264.42 605.95,-257.02 607.27,-267.53 613.54,-264.42"/>
</g>
<!-- 5&#45;&gt;4 -->
<g id="edge9" class="edge">
<title>5&#45;&gt;4</title>
<path fill="none" stroke="grey" stroke-width="2" d="M585.37,-364.7C580.37,-356.56 574.31,-346.69 568.79,-337.7"/>
<polygon fill="grey" stroke="grey" stroke-width="2" points="571.72,-335.79 563.51,-329.1 565.76,-339.46 571.72,-335.79"/>
</g>
<!-- 6 -->
<g id="node7" class="node">
<title>6</title>
<path fill="none" stroke="#d8ac56" stroke-width="2" d="M300.5,-473C300.5,-473 155.5,-473 155.5,-473 149.5,-473 143.5,-467 143.5,-461 143.5,-461 143.5,-449 143.5,-449 143.5,-443 149.5,-437 155.5,-437 155.5,-437 300.5,-437 300.5,-437 306.5,-437 312.5,-443 312.5,-449 312.5,-449 312.5,-461 312.5,-461 312.5,-467 306.5,-473 300.5,-473"/>
<text text-anchor="middle" x="228" y="-452.5" font-family="sans" font-size="10.00">haplotag_with_new_phase_set</text>
</g>
<!-- 6&#45;&gt;5 -->
<g id="edge10" class="edge">
<title>6&#45;&gt;5</title>
<path fill="none" stroke="grey" stroke-width="2" d="M312.89,-437.85C377.13,-425.63 464.35,-409.04 524.93,-397.52"/>
<polygon fill="grey" stroke="grey" stroke-width="2" points="525.62,-400.95 534.79,-395.64 524.32,-394.07 525.62,-400.95"/>
</g>
<!-- 7 -->
<g id="node8" class="node">
<title>7</title>
<path fill="none" stroke="#56d8b9" stroke-width="2" d="M250,-545C250,-545 206,-545 206,-545 200,-545 194,-539 194,-533 194,-533 194,-521 194,-521 194,-515 200,-509 206,-509 206,-509 250,-509 250,-509 256,-509 262,-515 262,-521 262,-521 262,-533 262,-533 262,-539 256,-545 250,-545"/>
<text text-anchor="middle" x="228" y="-524.5" font-family="sans" font-size="10.00">modify_ps</text>
</g>
<!-- 7&#45;&gt;5 -->
<g id="edge13" class="edge">
<title>7&#45;&gt;5</title>
<path fill="none" stroke="grey" stroke-width="2" d="M262.29,-512.77C326.54,-487.98 465.49,-434.36 542.28,-404.73"/>
<polygon fill="grey" stroke="grey" stroke-width="2" points="543.71,-407.93 551.78,-401.06 541.19,-401.4 543.71,-407.93"/>
</g>
<!-- 7&#45;&gt;6 -->
<g id="edge16" class="edge">
<title>7&#45;&gt;6</title>
<path fill="none" stroke="grey" stroke-width="2" d="M228,-508.7C228,-500.98 228,-491.71 228,-483.11"/>
<polygon fill="grey" stroke="grey" stroke-width="2" points="231.5,-483.1 228,-473.1 224.5,-483.1 231.5,-483.1"/>
</g>
<!-- 8 -->
<g id="node9" class="node">
<title>8</title>
<path fill="none" stroke="#56d8d0" stroke-width="2" d="M260.5,-617C260.5,-617 141.5,-617 141.5,-617 135.5,-617 129.5,-611 129.5,-605 129.5,-605 129.5,-593 129.5,-593 129.5,-587 135.5,-581 141.5,-581 141.5,-581 260.5,-581 260.5,-581 266.5,-581 272.5,-587 272.5,-593 272.5,-593 272.5,-605 272.5,-605 272.5,-611 266.5,-617 260.5,-617"/>
<text text-anchor="middle" x="201" y="-596.5" font-family="sans" font-size="10.00">hapcut2_from_fragments</text>
</g>
<!-- 8&#45;&gt;7 -->
<g id="edge18" class="edge">
<title>8&#45;&gt;7</title>
<path fill="none" stroke="grey" stroke-width="2" d="M207.67,-580.7C210.71,-572.81 214.38,-563.3 217.76,-554.55"/>
<polygon fill="grey" stroke="grey" stroke-width="2" points="221.07,-555.69 221.4,-545.1 214.54,-553.17 221.07,-555.69"/>
</g>
<!-- 9 -->
<g id="node10" class="node">
<title>9</title>
<path fill="none" stroke="#56c1d8" stroke-width="2" d="M341.5,-689C341.5,-689 214.5,-689 214.5,-689 208.5,-689 202.5,-683 202.5,-677 202.5,-677 202.5,-665 202.5,-665 202.5,-659 208.5,-653 214.5,-653 214.5,-653 341.5,-653 341.5,-653 347.5,-653 353.5,-659 353.5,-665 353.5,-665 353.5,-677 353.5,-677 353.5,-683 347.5,-689 341.5,-689"/>
<text text-anchor="middle" x="278" y="-668.5" font-family="sans" font-size="10.00">extractHairs_by_chrm_HiC</text>
</g>
<!-- 9&#45;&gt;8 -->
<g id="edge19" class="edge">
<title>9&#45;&gt;8</title>
<path fill="none" stroke="grey" stroke-width="2" d="M258.97,-652.7C249.46,-644.05 237.79,-633.45 227.43,-624.03"/>
<polygon fill="grey" stroke="grey" stroke-width="2" points="229.57,-621.24 219.81,-617.1 224.86,-626.42 229.57,-621.24"/>
</g>
<!-- 10 -->
<g id="node11" class="node">
<title>10</title>
<path fill="none" stroke="#d88d56" stroke-width="2" d="M484.5,-769C484.5,-769 389.5,-769 389.5,-769 383.5,-769 377.5,-763 377.5,-757 377.5,-757 377.5,-745 377.5,-745 377.5,-739 383.5,-733 389.5,-733 389.5,-733 484.5,-733 484.5,-733 490.5,-733 496.5,-739 496.5,-745 496.5,-745 496.5,-757 496.5,-757 496.5,-763 490.5,-769 484.5,-769"/>
<text text-anchor="middle" x="437" y="-748.5" font-family="sans" font-size="10.00">hic_merge_replicate</text>
</g>
<!-- 10&#45;&gt;9 -->
<g id="edge22" class="edge">
<title>10&#45;&gt;9</title>
<path fill="none" stroke="grey" stroke-width="2" d="M402.11,-732.88C378.5,-721.3 347.12,-705.91 321.83,-693.5"/>
<polygon fill="grey" stroke="grey" stroke-width="2" points="323.33,-690.34 312.81,-689.08 320.25,-696.62 323.33,-690.34"/>
</g>
<!-- 26 -->
<g id="node27" class="node">
<title>26</title>
<path fill="none" stroke="#56c1d8" stroke-width="2" d="M510.5,-689C510.5,-689 383.5,-689 383.5,-689 377.5,-689 371.5,-683 371.5,-677 371.5,-677 371.5,-665 371.5,-665 371.5,-659 377.5,-653 383.5,-653 383.5,-653 510.5,-653 510.5,-653 516.5,-653 522.5,-659 522.5,-665 522.5,-665 522.5,-677 522.5,-677 522.5,-683 516.5,-689 510.5,-689"/>
<text text-anchor="middle" x="447" y="-668.5" font-family="sans" font-size="10.00">extractHairs_by_chrm_HiC</text>
</g>
<!-- 10&#45;&gt;26 -->
<g id="edge41" class="edge">
<title>10&#45;&gt;26</title>
<path fill="none" stroke="grey" stroke-width="2" d="M439.22,-732.69C440.48,-722.89 442.07,-710.42 443.5,-699.33"/>
<polygon fill="grey" stroke="grey" stroke-width="2" points="446.99,-699.63 444.79,-689.26 440.04,-698.74 446.99,-699.63"/>
</g>
<!-- 32 -->
<g id="node33" class="node">
<title>32</title>
<path fill="none" stroke="#56c1d8" stroke-width="2" d="M882.5,-689C882.5,-689 755.5,-689 755.5,-689 749.5,-689 743.5,-683 743.5,-677 743.5,-677 743.5,-665 743.5,-665 743.5,-659 749.5,-653 755.5,-653 755.5,-653 882.5,-653 882.5,-653 888.5,-653 894.5,-659 894.5,-665 894.5,-665 894.5,-677 894.5,-677 894.5,-683 888.5,-689 882.5,-689"/>
<text text-anchor="middle" x="819" y="-668.5" font-family="sans" font-size="10.00">extractHairs_by_chrm_HiC</text>
</g>
<!-- 10&#45;&gt;32 -->
<g id="edge50" class="edge">
<title>10&#45;&gt;32</title>
<path fill="none" stroke="grey" stroke-width="2" d="M480.04,-732.98C488.55,-730.02 497.49,-727.19 506,-725 602.24,-700.21 631.21,-706.62 733.37,-689.05"/>
<polygon fill="grey" stroke="grey" stroke-width="2" points="734.24,-692.45 743.49,-687.27 733.03,-685.55 734.24,-692.45"/>
</g>
<!-- 11 -->
<g id="node12" class="node">
<title>11</title>
<path fill="none" stroke="#80d856" stroke-width="2" d="M412.5,-849C412.5,-849 361.5,-849 361.5,-849 355.5,-849 349.5,-843 349.5,-837 349.5,-837 349.5,-825 349.5,-825 349.5,-819 355.5,-813 361.5,-813 361.5,-813 412.5,-813 412.5,-813 418.5,-813 424.5,-819 424.5,-825 424.5,-825 424.5,-837 424.5,-837 424.5,-843 418.5,-849 412.5,-849"/>
<text text-anchor="middle" x="387" y="-828.5" font-family="sans" font-size="10.00">hicMarkDup</text>
</g>
<!-- 11&#45;&gt;10 -->
<g id="edge24" class="edge">
<title>11&#45;&gt;10</title>
<path fill="none" stroke="grey" stroke-width="2" d="M398.1,-812.69C404.63,-802.49 413.03,-789.39 420.35,-777.97"/>
<polygon fill="grey" stroke="grey" stroke-width="2" points="423.48,-779.57 425.93,-769.26 417.59,-775.79 423.48,-779.57"/>
</g>
<!-- 12 -->
<g id="node13" class="node">
<title>12</title>
<path fill="none" stroke="#b6d856" stroke-width="2" d="M412.5,-921C412.5,-921 333.5,-921 333.5,-921 327.5,-921 321.5,-915 321.5,-909 321.5,-909 321.5,-897 321.5,-897 321.5,-891 327.5,-885 333.5,-885 333.5,-885 412.5,-885 412.5,-885 418.5,-885 424.5,-891 424.5,-897 424.5,-897 424.5,-909 424.5,-909 424.5,-915 418.5,-921 412.5,-921"/>
<text text-anchor="middle" x="373" y="-900.5" font-family="sans" font-size="10.00">hicRepairFixmate</text>
</g>
<!-- 12&#45;&gt;11 -->
<g id="edge26" class="edge">
<title>12&#45;&gt;11</title>
<path fill="none" stroke="grey" stroke-width="2" d="M376.46,-884.7C378,-876.98 379.86,-867.71 381.58,-859.11"/>
<polygon fill="grey" stroke="grey" stroke-width="2" points="385.05,-859.6 383.58,-849.1 378.19,-858.22 385.05,-859.6"/>
</g>
<!-- 13 -->
<g id="node14" class="node">
<title>13</title>
<path fill="none" stroke="#d8c356" stroke-width="2" d="M392.5,-993C392.5,-993 353.5,-993 353.5,-993 347.5,-993 341.5,-987 341.5,-981 341.5,-981 341.5,-969 341.5,-969 341.5,-963 347.5,-957 353.5,-957 353.5,-957 392.5,-957 392.5,-957 398.5,-957 404.5,-963 404.5,-969 404.5,-969 404.5,-981 404.5,-981 404.5,-987 398.5,-993 392.5,-993"/>
<text text-anchor="middle" x="373" y="-972.5" font-family="sans" font-size="10.00">hicRepair</text>
</g>
<!-- 13&#45;&gt;12 -->
<g id="edge27" class="edge">
<title>13&#45;&gt;12</title>
<path fill="none" stroke="grey" stroke-width="2" d="M373,-956.7C373,-948.98 373,-939.71 373,-931.11"/>
<polygon fill="grey" stroke="grey" stroke-width="2" points="376.5,-931.1 373,-921.1 369.5,-931.1 376.5,-931.1"/>
</g>
<!-- 14 -->
<g id="node15" class="node">
<title>14</title>
<path fill="none" stroke="#d85656" stroke-width="2" d="M300.5,-1092C300.5,-1092 233.5,-1092 233.5,-1092 227.5,-1092 221.5,-1086 221.5,-1080 221.5,-1080 221.5,-1041 221.5,-1041 221.5,-1035 227.5,-1029 233.5,-1029 233.5,-1029 300.5,-1029 300.5,-1029 306.5,-1029 312.5,-1035 312.5,-1041 312.5,-1041 312.5,-1080 312.5,-1080 312.5,-1086 306.5,-1092 300.5,-1092"/>
<text text-anchor="middle" x="267" y="-1080" font-family="sans" font-size="10.00">bwa_map_hic</text>
<text text-anchor="middle" x="267" y="-1069" font-family="sans" font-size="10.00">pair: R1</text>
<text text-anchor="middle" x="267" y="-1058" font-family="sans" font-size="10.00">ref: hg19</text>
<text text-anchor="middle" x="267" y="-1047" font-family="sans" font-size="10.00">rep: rep1</text>
<text text-anchor="middle" x="267" y="-1036" font-family="sans" font-size="10.00">sample: 63083</text>
</g>
<!-- 14&#45;&gt;13 -->
<g id="edge28" class="edge">
<title>14&#45;&gt;13</title>
<path fill="none" stroke="grey" stroke-width="2" d="M305.87,-1028.88C318.23,-1019.14 331.7,-1008.53 343.31,-999.39"/>
<polygon fill="grey" stroke="grey" stroke-width="2" points="345.7,-1001.96 351.39,-993.03 341.36,-996.47 345.7,-1001.96"/>
</g>
<!-- 15 -->
<g id="node16" class="node">
<title>15</title>
<path fill="none" stroke="#d85656" stroke-width="2" d="M409.5,-1092C409.5,-1092 342.5,-1092 342.5,-1092 336.5,-1092 330.5,-1086 330.5,-1080 330.5,-1080 330.5,-1041 330.5,-1041 330.5,-1035 336.5,-1029 342.5,-1029 342.5,-1029 409.5,-1029 409.5,-1029 415.5,-1029 421.5,-1035 421.5,-1041 421.5,-1041 421.5,-1080 421.5,-1080 421.5,-1086 415.5,-1092 409.5,-1092"/>
<text text-anchor="middle" x="376" y="-1080" font-family="sans" font-size="10.00">bwa_map_hic</text>
<text text-anchor="middle" x="376" y="-1069" font-family="sans" font-size="10.00">pair: R2</text>
<text text-anchor="middle" x="376" y="-1058" font-family="sans" font-size="10.00">ref: hg19</text>
<text text-anchor="middle" x="376" y="-1047" font-family="sans" font-size="10.00">rep: rep1</text>
<text text-anchor="middle" x="376" y="-1036" font-family="sans" font-size="10.00">sample: 63083</text>
</g>
<!-- 15&#45;&gt;13 -->
<g id="edge29" class="edge">
<title>15&#45;&gt;13</title>
<path fill="none" stroke="grey" stroke-width="2" d="M374.9,-1028.88C374.6,-1020.47 374.27,-1011.4 373.98,-1003.19"/>
<polygon fill="grey" stroke="grey" stroke-width="2" points="377.47,-1002.89 373.61,-993.03 370.47,-1003.15 377.47,-1002.89"/>
</g>
<!-- 16 -->
<g id="node17" class="node">
<title>16</title>
<path fill="none" stroke="#80d856" stroke-width="2" d="M512.5,-849C512.5,-849 461.5,-849 461.5,-849 455.5,-849 449.5,-843 449.5,-837 449.5,-837 449.5,-825 449.5,-825 449.5,-819 455.5,-813 461.5,-813 461.5,-813 512.5,-813 512.5,-813 518.5,-813 524.5,-819 524.5,-825 524.5,-825 524.5,-837 524.5,-837 524.5,-843 518.5,-849 512.5,-849"/>
<text text-anchor="middle" x="487" y="-828.5" font-family="sans" font-size="10.00">hicMarkDup</text>
</g>
<!-- 16&#45;&gt;10 -->
<g id="edge25" class="edge">
<title>16&#45;&gt;10</title>
<path fill="none" stroke="grey" stroke-width="2" d="M475.9,-812.69C469.37,-802.49 460.97,-789.39 453.65,-777.97"/>
<polygon fill="grey" stroke="grey" stroke-width="2" points="456.41,-775.79 448.07,-769.26 450.52,-779.57 456.41,-775.79"/>
</g>
<!-- 17 -->
<g id="node18" class="node">
<title>17</title>
<path fill="none" stroke="#b6d856" stroke-width="2" d="M533.5,-921C533.5,-921 454.5,-921 454.5,-921 448.5,-921 442.5,-915 442.5,-909 442.5,-909 442.5,-897 442.5,-897 442.5,-891 448.5,-885 454.5,-885 454.5,-885 533.5,-885 533.5,-885 539.5,-885 545.5,-891 545.5,-897 545.5,-897 545.5,-909 545.5,-909 545.5,-915 539.5,-921 533.5,-921"/>
<text text-anchor="middle" x="494" y="-900.5" font-family="sans" font-size="10.00">hicRepairFixmate</text>
</g>
<!-- 17&#45;&gt;16 -->
<g id="edge30" class="edge">
<title>17&#45;&gt;16</title>
<path fill="none" stroke="grey" stroke-width="2" d="M492.27,-884.7C491.5,-876.98 490.57,-867.71 489.71,-859.11"/>
<polygon fill="grey" stroke="grey" stroke-width="2" points="493.19,-858.71 488.71,-849.1 486.22,-859.4 493.19,-858.71"/>
</g>
<!-- 18 -->
<g id="node19" class="node">
<title>18</title>
<path fill="none" stroke="#d8c356" stroke-width="2" d="M513.5,-993C513.5,-993 474.5,-993 474.5,-993 468.5,-993 462.5,-987 462.5,-981 462.5,-981 462.5,-969 462.5,-969 462.5,-963 468.5,-957 474.5,-957 474.5,-957 513.5,-957 513.5,-957 519.5,-957 525.5,-963 525.5,-969 525.5,-969 525.5,-981 525.5,-981 525.5,-987 519.5,-993 513.5,-993"/>
<text text-anchor="middle" x="494" y="-972.5" font-family="sans" font-size="10.00">hicRepair</text>
</g>
<!-- 18&#45;&gt;17 -->
<g id="edge31" class="edge">
<title>18&#45;&gt;17</title>
<path fill="none" stroke="grey" stroke-width="2" d="M494,-956.7C494,-948.98 494,-939.71 494,-931.11"/>
<polygon fill="grey" stroke="grey" stroke-width="2" points="497.5,-931.1 494,-921.1 490.5,-931.1 497.5,-931.1"/>
</g>
<!-- 19 -->
<g id="node20" class="node">
<title>19</title>
<path fill="none" stroke="#d85656" stroke-width="2" d="M524.5,-1092C524.5,-1092 457.5,-1092 457.5,-1092 451.5,-1092 445.5,-1086 445.5,-1080 445.5,-1080 445.5,-1041 445.5,-1041 445.5,-1035 451.5,-1029 457.5,-1029 457.5,-1029 524.5,-1029 524.5,-1029 530.5,-1029 536.5,-1035 536.5,-1041 536.5,-1041 536.5,-1080 536.5,-1080 536.5,-1086 530.5,-1092 524.5,-1092"/>
<text text-anchor="middle" x="491" y="-1080" font-family="sans" font-size="10.00">bwa_map_hic</text>
<text text-anchor="middle" x="491" y="-1069" font-family="sans" font-size="10.00">pair: R1</text>
<text text-anchor="middle" x="491" y="-1058" font-family="sans" font-size="10.00">ref: hg19</text>
<text text-anchor="middle" x="491" y="-1047" font-family="sans" font-size="10.00">rep: rep2</text>
<text text-anchor="middle" x="491" y="-1036" font-family="sans" font-size="10.00">sample: 63083</text>
</g>
<!-- 19&#45;&gt;18 -->
<g id="edge32" class="edge">
<title>19&#45;&gt;18</title>
<path fill="none" stroke="grey" stroke-width="2" d="M492.1,-1028.88C492.4,-1020.47 492.73,-1011.4 493.02,-1003.19"/>
<polygon fill="grey" stroke="grey" stroke-width="2" points="496.53,-1003.15 493.39,-993.03 489.53,-1002.89 496.53,-1003.15"/>
</g>
<!-- 20 -->
<g id="node21" class="node">
<title>20</title>
<path fill="none" stroke="#d85656" stroke-width="2" d="M633.5,-1092C633.5,-1092 566.5,-1092 566.5,-1092 560.5,-1092 554.5,-1086 554.5,-1080 554.5,-1080 554.5,-1041 554.5,-1041 554.5,-1035 560.5,-1029 566.5,-1029 566.5,-1029 633.5,-1029 633.5,-1029 639.5,-1029 645.5,-1035 645.5,-1041 645.5,-1041 645.5,-1080 645.5,-1080 645.5,-1086 639.5,-1092 633.5,-1092"/>
<text text-anchor="middle" x="600" y="-1080" font-family="sans" font-size="10.00">bwa_map_hic</text>
<text text-anchor="middle" x="600" y="-1069" font-family="sans" font-size="10.00">pair: R2</text>
<text text-anchor="middle" x="600" y="-1058" font-family="sans" font-size="10.00">ref: hg19</text>
<text text-anchor="middle" x="600" y="-1047" font-family="sans" font-size="10.00">rep: rep2</text>
<text text-anchor="middle" x="600" y="-1036" font-family="sans" font-size="10.00">sample: 63083</text>
</g>
<!-- 20&#45;&gt;18 -->
<g id="edge33" class="edge">
<title>20&#45;&gt;18</title>
<path fill="none" stroke="grey" stroke-width="2" d="M561.13,-1028.88C548.77,-1019.14 535.3,-1008.53 523.69,-999.39"/>
<polygon fill="grey" stroke="grey" stroke-width="2" points="525.64,-996.47 515.61,-993.03 521.3,-1001.96 525.64,-996.47"/>
</g>
<!-- 21 -->
<g id="node22" class="node">
<title>21</title>
<path fill="none" stroke="#56d863" stroke-width="2" d="M207.5,-777C207.5,-777 140.5,-777 140.5,-777 134.5,-777 128.5,-771 128.5,-765 128.5,-765 128.5,-737 128.5,-737 128.5,-731 134.5,-725 140.5,-725 140.5,-725 207.5,-725 207.5,-725 213.5,-725 219.5,-731 219.5,-737 219.5,-737 219.5,-765 219.5,-765 219.5,-771 213.5,-777 207.5,-777"/>
<text text-anchor="middle" x="174" y="-765" font-family="sans" font-size="10.00">freebayes</text>
<text text-anchor="middle" x="174" y="-754" font-family="sans" font-size="10.00">chr: chr1</text>
<text text-anchor="middle" x="174" y="-743" font-family="sans" font-size="10.00">ref: hg19</text>
<text text-anchor="middle" x="174" y="-732" font-family="sans" font-size="10.00">sample: 63083</text>
</g>
<!-- 21&#45;&gt;8 -->
<g id="edge21" class="edge">
<title>21&#45;&gt;8</title>
<path fill="none" stroke="grey" stroke-width="2" d="M178.52,-724.89C183.39,-697.83 191.12,-654.89 196.13,-627.08"/>
<polygon fill="grey" stroke="grey" stroke-width="2" points="199.57,-627.69 197.9,-617.23 192.68,-626.45 199.57,-627.69"/>
</g>
<!-- 21&#45;&gt;9 -->
<g id="edge23" class="edge">
<title>21&#45;&gt;9</title>
<path fill="none" stroke="grey" stroke-width="2" d="M207.48,-724.89C220.12,-715.41 234.44,-704.67 246.86,-695.36"/>
<polygon fill="grey" stroke="grey" stroke-width="2" points="249.21,-697.97 255.11,-689.17 245.01,-692.37 249.21,-697.97"/>
</g>
<!-- 22 -->
<g id="node23" class="node">
<title>22</title>
<path fill="none" stroke="#d87556" stroke-width="2" d="M134,-689C134,-689 12,-689 12,-689 6,-689 0,-683 0,-677 0,-677 0,-665 0,-665 0,-659 6,-653 12,-653 12,-653 134,-653 134,-653 140,-653 146,-659 146,-665 146,-665 146,-677 146,-677 146,-683 140,-689 134,-689"/>
<text text-anchor="middle" x="73" y="-668.5" font-family="sans" font-size="10.00">extractHairs_by_chrm_Pb</text>
</g>
<!-- 21&#45;&gt;22 -->
<g id="edge34" class="edge">
<title>21&#45;&gt;22</title>
<path fill="none" stroke="grey" stroke-width="2" d="M141.49,-724.89C129.21,-715.41 115.3,-704.67 103.24,-695.36"/>
<polygon fill="grey" stroke="grey" stroke-width="2" points="105.29,-692.51 95.23,-689.17 101.01,-698.05 105.29,-692.51"/>
</g>
<!-- 22&#45;&gt;6 -->
<g id="edge17" class="edge">
<title>22&#45;&gt;6</title>
<path fill="none" stroke="grey" stroke-width="2" d="M80.59,-652.95C89.09,-634.53 103.84,-604.66 120,-581 145.54,-543.6 180.67,-504.78 203.83,-480.52"/>
<polygon fill="grey" stroke="grey" stroke-width="2" points="206.49,-482.81 210.91,-473.18 201.45,-477.95 206.49,-482.81"/>
</g>
<!-- 22&#45;&gt;8 -->
<g id="edge20" class="edge">
<title>22&#45;&gt;8</title>
<path fill="none" stroke="grey" stroke-width="2" d="M104.31,-652.88C121.2,-643.64 142.25,-632.13 160.38,-622.21"/>
<polygon fill="grey" stroke="grey" stroke-width="2" points="162.47,-625.06 169.57,-617.19 159.11,-618.92 162.47,-625.06"/>
</g>
<!-- 23 -->
<g id="node24" class="node">
<title>23</title>
<path fill="none" stroke="#d8ac56" stroke-width="2" d="M724.5,-473C724.5,-473 579.5,-473 579.5,-473 573.5,-473 567.5,-467 567.5,-461 567.5,-461 567.5,-449 567.5,-449 567.5,-443 573.5,-437 579.5,-437 579.5,-437 724.5,-437 724.5,-437 730.5,-437 736.5,-443 736.5,-449 736.5,-449 736.5,-461 736.5,-461 736.5,-467 730.5,-473 724.5,-473"/>
<text text-anchor="middle" x="652" y="-452.5" font-family="sans" font-size="10.00">haplotag_with_new_phase_set</text>
</g>
<!-- 23&#45;&gt;5 -->
<g id="edge11" class="edge">
<title>23&#45;&gt;5</title>
<path fill="none" stroke="grey" stroke-width="2" d="M638.16,-436.7C631.51,-428.39 623.42,-418.28 616.11,-409.14"/>
<polygon fill="grey" stroke="grey" stroke-width="2" points="618.66,-406.73 609.68,-401.1 613.2,-411.1 618.66,-406.73"/>
</g>
<!-- 24 -->
<g id="node25" class="node">
<title>24</title>
<path fill="none" stroke="#56d8b9" stroke-width="2" d="M573,-545C573,-545 529,-545 529,-545 523,-545 517,-539 517,-533 517,-533 517,-521 517,-521 517,-515 523,-509 529,-509 529,-509 573,-509 573,-509 579,-509 585,-515 585,-521 585,-521 585,-533 585,-533 585,-539 579,-545 573,-545"/>
<text text-anchor="middle" x="551" y="-524.5" font-family="sans" font-size="10.00">modify_ps</text>
</g>
<!-- 24&#45;&gt;5 -->
<g id="edge14" class="edge">
<title>24&#45;&gt;5</title>
<path fill="none" stroke="grey" stroke-width="2" d="M549.97,-508.7C549.46,-490.34 550.34,-460.76 559,-437 562.54,-427.3 568.31,-417.72 574.26,-409.43"/>
<polygon fill="grey" stroke="grey" stroke-width="2" points="577.17,-411.39 580.43,-401.31 571.6,-407.16 577.17,-411.39"/>
</g>
<!-- 24&#45;&gt;23 -->
<g id="edge35" class="edge">
<title>24&#45;&gt;23</title>
<path fill="none" stroke="grey" stroke-width="2" d="M575.71,-508.88C588.67,-499.89 604.73,-488.76 618.77,-479.03"/>
<polygon fill="grey" stroke="grey" stroke-width="2" points="620.97,-481.76 627.2,-473.19 616.98,-476.01 620.97,-481.76"/>
</g>
<!-- 25 -->
<g id="node26" class="node">
<title>25</title>
<path fill="none" stroke="#56d8d0" stroke-width="2" d="M610.5,-617C610.5,-617 491.5,-617 491.5,-617 485.5,-617 479.5,-611 479.5,-605 479.5,-605 479.5,-593 479.5,-593 479.5,-587 485.5,-581 491.5,-581 491.5,-581 610.5,-581 610.5,-581 616.5,-581 622.5,-587 622.5,-593 622.5,-593 622.5,-605 622.5,-605 622.5,-611 616.5,-617 610.5,-617"/>
<text text-anchor="middle" x="551" y="-596.5" font-family="sans" font-size="10.00">hapcut2_from_fragments</text>
</g>
<!-- 25&#45;&gt;24 -->
<g id="edge37" class="edge">
<title>25&#45;&gt;24</title>
<path fill="none" stroke="grey" stroke-width="2" d="M551,-580.7C551,-572.98 551,-563.71 551,-555.11"/>
<polygon fill="grey" stroke="grey" stroke-width="2" points="554.5,-555.1 551,-545.1 547.5,-555.1 554.5,-555.1"/>
</g>
<!-- 26&#45;&gt;25 -->
<g id="edge38" class="edge">
<title>26&#45;&gt;25</title>
<path fill="none" stroke="grey" stroke-width="2" d="M472.44,-652.88C485.79,-643.89 502.32,-632.76 516.78,-623.03"/>
<polygon fill="grey" stroke="grey" stroke-width="2" points="519.12,-625.68 525.46,-617.19 515.21,-619.87 519.12,-625.68"/>
</g>
<!-- 27 -->
<g id="node28" class="node">
<title>27</title>
<path fill="none" stroke="#56d863" stroke-width="2" d="M593.5,-777C593.5,-777 526.5,-777 526.5,-777 520.5,-777 514.5,-771 514.5,-765 514.5,-765 514.5,-737 514.5,-737 514.5,-731 520.5,-725 526.5,-725 526.5,-725 593.5,-725 593.5,-725 599.5,-725 605.5,-731 605.5,-737 605.5,-737 605.5,-765 605.5,-765 605.5,-771 599.5,-777 593.5,-777"/>
<text text-anchor="middle" x="560" y="-765" font-family="sans" font-size="10.00">freebayes</text>
<text text-anchor="middle" x="560" y="-754" font-family="sans" font-size="10.00">chr: chr2</text>
<text text-anchor="middle" x="560" y="-743" font-family="sans" font-size="10.00">ref: hg19</text>
<text text-anchor="middle" x="560" y="-732" font-family="sans" font-size="10.00">sample: 63083</text>
</g>
<!-- 27&#45;&gt;25 -->
<g id="edge40" class="edge">
<title>27&#45;&gt;25</title>
<path fill="none" stroke="grey" stroke-width="2" d="M558.49,-724.89C556.88,-697.95 554.32,-655.27 552.65,-627.45"/>
<polygon fill="grey" stroke="grey" stroke-width="2" points="556.13,-627 552.03,-617.23 549.14,-627.42 556.13,-627"/>
</g>
<!-- 27&#45;&gt;26 -->
<g id="edge42" class="edge">
<title>27&#45;&gt;26</title>
<path fill="none" stroke="grey" stroke-width="2" d="M523.62,-724.89C509.76,-715.32 494.03,-704.46 480.45,-695.09"/>
<polygon fill="grey" stroke="grey" stroke-width="2" points="482.09,-691.97 471.87,-689.17 478.12,-697.73 482.09,-691.97"/>
</g>
<!-- 28 -->
<g id="node29" class="node">
<title>28</title>
<path fill="none" stroke="#d87556" stroke-width="2" d="M713,-689C713,-689 591,-689 591,-689 585,-689 579,-683 579,-677 579,-677 579,-665 579,-665 579,-659 585,-653 591,-653 591,-653 713,-653 713,-653 719,-653 725,-659 725,-665 725,-665 725,-677 725,-677 725,-683 719,-689 713,-689"/>
<text text-anchor="middle" x="652" y="-668.5" font-family="sans" font-size="10.00">extractHairs_by_chrm_Pb</text>
</g>
<!-- 27&#45;&gt;28 -->
<g id="edge43" class="edge">
<title>27&#45;&gt;28</title>
<path fill="none" stroke="grey" stroke-width="2" d="M589.62,-724.89C600.58,-715.59 612.98,-705.08 623.82,-695.9"/>
<polygon fill="grey" stroke="grey" stroke-width="2" points="626.38,-698.31 631.75,-689.17 621.86,-692.97 626.38,-698.31"/>
</g>
<!-- 28&#45;&gt;23 -->
<g id="edge36" class="edge">
<title>28&#45;&gt;23</title>
<path fill="none" stroke="grey" stroke-width="2" d="M652,-652.85C652,-615.83 652,-528.18 652,-483.39"/>
<polygon fill="grey" stroke="grey" stroke-width="2" points="655.5,-483.23 652,-473.23 648.5,-483.23 655.5,-483.23"/>
</g>
<!-- 28&#45;&gt;25 -->
<g id="edge39" class="edge">
<title>28&#45;&gt;25</title>
<path fill="none" stroke="grey" stroke-width="2" d="M627.29,-652.88C614.33,-643.89 598.27,-632.76 584.23,-623.03"/>
<polygon fill="grey" stroke="grey" stroke-width="2" points="586.02,-620.01 575.8,-617.19 582.03,-625.76 586.02,-620.01"/>
</g>
<!-- 29 -->
<g id="node30" class="node">
<title>29</title>
<path fill="none" stroke="#d8ac56" stroke-width="2" d="M957.5,-473C957.5,-473 812.5,-473 812.5,-473 806.5,-473 800.5,-467 800.5,-461 800.5,-461 800.5,-449 800.5,-449 800.5,-443 806.5,-437 812.5,-437 812.5,-437 957.5,-437 957.5,-437 963.5,-437 969.5,-443 969.5,-449 969.5,-449 969.5,-461 969.5,-461 969.5,-467 963.5,-473 957.5,-473"/>
<text text-anchor="middle" x="885" y="-452.5" font-family="sans" font-size="10.00">haplotag_with_new_phase_set</text>
</g>
<!-- 29&#45;&gt;5 -->
<g id="edge12" class="edge">
<title>29&#45;&gt;5</title>
<path fill="none" stroke="grey" stroke-width="2" d="M814.67,-436.97C769.94,-426.13 712.19,-412.14 667.27,-401.26"/>
<polygon fill="grey" stroke="grey" stroke-width="2" points="667.85,-397.8 657.31,-398.85 666.21,-404.61 667.85,-397.8"/>
</g>
<!-- 30 -->
<g id="node31" class="node">
<title>30</title>
<path fill="none" stroke="#56d8b9" stroke-width="2" d="M907,-545C907,-545 863,-545 863,-545 857,-545 851,-539 851,-533 851,-533 851,-521 851,-521 851,-515 857,-509 863,-509 863,-509 907,-509 907,-509 913,-509 919,-515 919,-521 919,-521 919,-533 919,-533 919,-539 913,-545 907,-545"/>
<text text-anchor="middle" x="885" y="-524.5" font-family="sans" font-size="10.00">modify_ps</text>
</g>
<!-- 30&#45;&gt;5 -->
<g id="edge15" class="edge">
<title>30&#45;&gt;5</title>
<path fill="none" stroke="grey" stroke-width="2" d="M852.45,-508.97C834.28,-499.09 811.44,-486.05 792,-473 770.44,-458.53 768.76,-449.49 746,-437 721.31,-423.45 692.49,-412.29 666.74,-403.76"/>
<polygon fill="grey" stroke="grey" stroke-width="2" points="667.64,-400.37 657.04,-400.62 665.48,-407.03 667.64,-400.37"/>
</g>
<!-- 30&#45;&gt;29 -->
<g id="edge44" class="edge">
<title>30&#45;&gt;29</title>
<path fill="none" stroke="grey" stroke-width="2" d="M885,-508.7C885,-500.98 885,-491.71 885,-483.11"/>
<polygon fill="grey" stroke="grey" stroke-width="2" points="888.5,-483.1 885,-473.1 881.5,-483.1 888.5,-483.1"/>
</g>
<!-- 31 -->
<g id="node32" class="node">
<title>31</title>
<path fill="none" stroke="#56d8d0" stroke-width="2" d="M956.5,-617C956.5,-617 837.5,-617 837.5,-617 831.5,-617 825.5,-611 825.5,-605 825.5,-605 825.5,-593 825.5,-593 825.5,-587 831.5,-581 837.5,-581 837.5,-581 956.5,-581 956.5,-581 962.5,-581 968.5,-587 968.5,-593 968.5,-593 968.5,-605 968.5,-605 968.5,-611 962.5,-617 956.5,-617"/>
<text text-anchor="middle" x="897" y="-596.5" font-family="sans" font-size="10.00">hapcut2_from_fragments</text>
</g>
<!-- 31&#45;&gt;30 -->
<g id="edge46" class="edge">
<title>31&#45;&gt;30</title>
<path fill="none" stroke="grey" stroke-width="2" d="M894.03,-580.7C892.71,-572.98 891.12,-563.71 889.65,-555.11"/>
<polygon fill="grey" stroke="grey" stroke-width="2" points="893.07,-554.37 887.93,-545.1 886.17,-555.55 893.07,-554.37"/>
</g>
<!-- 32&#45;&gt;31 -->
<g id="edge47" class="edge">
<title>32&#45;&gt;31</title>
<path fill="none" stroke="grey" stroke-width="2" d="M838.28,-652.7C847.92,-644.05 859.73,-633.45 870.23,-624.03"/>
<polygon fill="grey" stroke="grey" stroke-width="2" points="872.84,-626.39 877.94,-617.1 868.16,-621.18 872.84,-626.39"/>
</g>
<!-- 33 -->
<g id="node34" class="node">
<title>33</title>
<path fill="none" stroke="#56d863" stroke-width="2" d="M956.5,-777C956.5,-777 889.5,-777 889.5,-777 883.5,-777 877.5,-771 877.5,-765 877.5,-765 877.5,-737 877.5,-737 877.5,-731 883.5,-725 889.5,-725 889.5,-725 956.5,-725 956.5,-725 962.5,-725 968.5,-731 968.5,-737 968.5,-737 968.5,-765 968.5,-765 968.5,-771 962.5,-777 956.5,-777"/>
<text text-anchor="middle" x="923" y="-765" font-family="sans" font-size="10.00">freebayes</text>
<text text-anchor="middle" x="923" y="-754" font-family="sans" font-size="10.00">chr: chrX</text>
<text text-anchor="middle" x="923" y="-743" font-family="sans" font-size="10.00">ref: hg19</text>
<text text-anchor="middle" x="923" y="-732" font-family="sans" font-size="10.00">sample: 63083</text>
</g>
<!-- 33&#45;&gt;31 -->
<g id="edge49" class="edge">
<title>33&#45;&gt;31</title>
<path fill="none" stroke="grey" stroke-width="2" d="M918.65,-724.89C913.96,-697.83 906.51,-654.89 901.69,-627.08"/>
<polygon fill="grey" stroke="grey" stroke-width="2" points="905.14,-626.48 899.99,-617.23 898.25,-627.68 905.14,-626.48"/>
</g>
<!-- 33&#45;&gt;32 -->
<g id="edge51" class="edge">
<title>33&#45;&gt;32</title>
<path fill="none" stroke="grey" stroke-width="2" d="M889.52,-724.89C876.88,-715.41 862.56,-704.67 850.14,-695.36"/>
<polygon fill="grey" stroke="grey" stroke-width="2" points="851.99,-692.37 841.89,-689.17 847.79,-697.97 851.99,-692.37"/>
</g>
<!-- 34 -->
<g id="node35" class="node">
<title>34</title>
<path fill="none" stroke="#d87556" stroke-width="2" d="M1085,-689C1085,-689 963,-689 963,-689 957,-689 951,-683 951,-677 951,-677 951,-665 951,-665 951,-659 957,-653 963,-653 963,-653 1085,-653 1085,-653 1091,-653 1097,-659 1097,-665 1097,-665 1097,-677 1097,-677 1097,-683 1091,-689 1085,-689"/>
<text text-anchor="middle" x="1024" y="-668.5" font-family="sans" font-size="10.00">extractHairs_by_chrm_Pb</text>
</g>
<!-- 33&#45;&gt;34 -->
<g id="edge52" class="edge">
<title>33&#45;&gt;34</title>
<path fill="none" stroke="grey" stroke-width="2" d="M955.51,-724.89C967.79,-715.41 981.7,-704.67 993.76,-695.36"/>
<polygon fill="grey" stroke="grey" stroke-width="2" points="995.99,-698.05 1001.77,-689.17 991.71,-692.51 995.99,-698.05"/>
</g>
<!-- 34&#45;&gt;29 -->
<g id="edge45" class="edge">
<title>34&#45;&gt;29</title>
<path fill="none" stroke="grey" stroke-width="2" d="M1015.99,-652.91C1007.27,-634.73 992.63,-605.29 978,-581 957.9,-547.62 951.4,-540.15 928,-509 921.1,-499.81 913.25,-489.98 906.17,-481.3"/>
<polygon fill="grey" stroke="grey" stroke-width="2" points="908.73,-478.9 899.67,-473.41 903.32,-483.35 908.73,-478.9"/>
</g>
<!-- 34&#45;&gt;31 -->
<g id="edge48" class="edge">
<title>34&#45;&gt;31</title>
<path fill="none" stroke="grey" stroke-width="2" d="M992.93,-652.88C976.17,-643.64 955.29,-632.13 937.3,-622.21"/>
<polygon fill="grey" stroke="grey" stroke-width="2" points="938.63,-618.95 928.19,-617.19 935.26,-625.08 938.63,-618.95"/>
</g>
<!-- 35&#45;&gt;1 -->
<g id="edge4" class="edge">
<title>35&#45;&gt;1</title>
<path fill="none" stroke="grey" stroke-width="2" d="M390.77,-143.69C399.99,-134.89 410.94,-124.45 420.64,-115.19"/>
<polygon fill="grey" stroke="grey" stroke-width="2" points="423.28,-117.51 428.1,-108.08 418.45,-112.45 423.28,-117.51"/>
</g>
<!-- 36&#45;&gt;1 -->
<g id="edge5" class="edge">
<title>36&#45;&gt;1</title>
<path fill="none" stroke="grey" stroke-width="2" d="M500.51,-143.69C491.47,-134.96 480.77,-124.61 471.24,-115.4"/>
<polygon fill="grey" stroke="grey" stroke-width="2" points="473.54,-112.75 463.92,-108.32 468.67,-117.79 473.54,-112.75"/>
</g>
<!-- 37 -->
<g id="node38" class="node">
<title>37</title>
<path fill="none" stroke="#5673d8" stroke-width="2" d="M796,-108C796,-108 698,-108 698,-108 692,-108 686,-102 686,-96 686,-96 686,-84 686,-84 686,-78 692,-72 698,-72 698,-72 796,-72 796,-72 802,-72 808,-78 808,-84 808,-84 808,-96 808,-96 808,-102 802,-108 796,-108"/>
<text text-anchor="middle" x="747" y="-87.5" font-family="sans" font-size="10.00">merge_rnaseq_count</text>
</g>
<!-- 37&#45;&gt;0 -->
<g id="edge2" class="edge">
<title>37&#45;&gt;0</title>
<path fill="none" stroke="grey" stroke-width="2" d="M692,-71.97C650.32,-59.06 594.2,-41.67 557.81,-30.4"/>
<polygon fill="grey" stroke="grey" stroke-width="2" points="558.68,-27.01 548.09,-27.39 556.61,-33.69 558.68,-27.01"/>
</g>
<!-- 38&#45;&gt;37 -->
<g id="edge55" class="edge">
<title>38&#45;&gt;37</title>
<path fill="none" stroke="grey" stroke-width="2" d="M692.49,-143.69C701.53,-134.96 712.23,-124.61 721.76,-115.4"/>
<polygon fill="grey" stroke="grey" stroke-width="2" points="724.33,-117.79 729.08,-108.32 719.46,-112.75 724.33,-117.79"/>
</g>
<!-- 39&#45;&gt;37 -->
<g id="edge56" class="edge">
<title>39&#45;&gt;37</title>
<path fill="none" stroke="grey" stroke-width="2" d="M802.23,-143.69C793.01,-134.89 782.06,-124.45 772.36,-115.19"/>
<polygon fill="grey" stroke="grey" stroke-width="2" points="774.55,-112.45 764.9,-108.08 769.72,-117.51 774.55,-112.45"/>
</g>
<!-- 40&#45;&gt;37 -->
<g id="edge57" class="edge">
<title>40&#45;&gt;37</title>
<path fill="none" stroke="grey" stroke-width="2" d="M912.87,-143.98C881.1,-133.83 842.31,-121.44 810.23,-111.2"/>
<polygon fill="grey" stroke="grey" stroke-width="2" points="811.1,-107.8 800.51,-108.09 808.97,-114.47 811.1,-107.8"/>
</g>
</g>
</svg>
